USFL
nRows=135
nColumns=2
inDegrees=yes
endheader
time	med_gas_r	
2.86272	 73.242718	
2.93429	 73.195849	
3.00586	 73.069572	
3.07742	 73.130767	
3.14899	 73.126937	
3.22056	 73.209021	
3.29213	 73.216213	
3.3637	 73.199050	
3.43526	 73.123880	
3.50683	 73.127893	
3.5784	 73.081794	
3.64997	 73.050665	
3.72154	 72.985068	
3.7931	 72.976270	
3.86467	 73.009337	
3.93624	 73.018701	
4.00781	 73.028007	
4.07938	 72.883123	
4.15094	 73.029590	
4.22251	 73.060666	
4.29408	 72.962390	
4.36565	 72.993021	
4.43722	 72.831489	
4.50878	 72.526956	
4.58035	 72.405617	
4.65192	 72.091842	
4.72349	 71.523520	
4.79506	 71.241852	
4.86662	 69.318468	
4.93819	 68.869087	
5.00976	 68.814271	
5.08133	 68.367997	
5.1529	 67.828963	
5.22446	 67.833807	
5.29603	 67.415945	
5.3676	 66.793177	
5.43917	 62.949080	
5.51074	 62.994309	
5.5823	 62.942856	
5.65387	 63.131978	
5.72544	 63.110286	
5.79701	 63.144591	
5.86858	 63.234004	
5.94014	 63.407753	
6.01171	 63.574044	
6.08328	 63.438849	
6.15485	 63.420477	
6.22642	 63.475572	
6.29798	 63.346710	
6.36955	 63.339012	
6.44112	 63.484320	
6.51269	 63.360025	
6.58426	 63.334258	
6.65582	 63.334301	
6.72739	 63.476573	
6.79896	 63.654446	
6.87053	 63.842083	
6.9421	 63.746585	
7.01366	 63.611771	
7.08523	 63.689746	
7.1568	 63.517249	
7.22837	 63.509635	
7.29994	 63.529399	
7.3715	 63.453490	
7.44307	 63.617576	
7.51464	 63.948392	
7.58621	 63.849567	
7.65778	 63.821932	
7.72934	 63.841224	
7.80091	 63.601677	
7.87248	 63.755696	
7.94405	 63.843971	
8.01562	 63.931504	
8.08718	 63.900382	
8.15875	 63.901853	
8.23032	 63.813805	
8.30189	 64.024795	
8.37346	 64.298828	
8.44502	 64.306468	
8.51659	 64.392914	
8.58816	 64.499245	
8.65973	 64.568348	
8.7313	 64.439317	
8.80286	 64.357704	
8.87443	 64.384671	
8.946	 64.447257	
9.01757	 64.408500	
9.08914	 64.427553	
9.1607	 64.315366	
9.23227	 64.231058	
9.30384	 64.388706	
9.37541	 64.580890	
9.44698	 64.647383	
9.51854	 64.631182	
9.59011	 64.498757	
9.66168	 64.502737	
9.73325	 64.464686	
9.80482	 64.537471	
9.87638	 64.545763	
9.94795	 64.590626	
10.0195	 64.548687	
10.0911	 64.608505	
10.1627	 64.595957	
10.2342	 64.669849	
10.3058	 64.682390	
10.3774	 64.648656	
10.4489	 64.652305	
10.5205	 64.658022	
10.5921	 64.649223	
10.6636	 64.703039	
10.7352	 64.732286	
10.8068	 64.667518	
10.8783	 65.028836	
10.9499	 65.450930	
11.0215	 65.331478	
11.093	 65.574471	
11.1646	 69.511636	
11.2362	 69.279328	
11.3077	 69.094566	
11.3793	 69.066428	
11.4509	 69.032754	
11.5224	 69.156065	
11.594	 69.111606	
11.6656	 69.331039	
11.7372	 69.297737	
11.8087	 69.399062	
11.8803	 69.461456	
11.9519	 69.247566	
12.0234	 69.204739	
12.095	 68.958502	
12.1666	 68.660333	
12.2381	 70.017961	
12.3097	 69.918269	
12.3813	 69.752022	
12.4528	 69.642069	
